<svg xmlns="http://www.w3.org/2000/svg" xmlns:svg="http://www.w3.org/2000/svg" id="svg6093" width="258.133" height="386.133" version="1.1" viewBox="0 0 242 362"><metadata id="metadata6098"/><g id="layer1" transform="translate(-270.4286,-325.64794)"><g id="g9888-0-5" transform="translate(-1588.5714,1074.2857)"><rect style="fill:#fff;fill-opacity:1;fill-rule:evenodd;stroke:#000;stroke-width:2;stroke-miterlimit:4;stroke-dasharray:none" id="rect2987-8-5-81-2-4-9" width="240" height="360" x="1860" y="-747.638" rx="40" ry="40"/><rect style="fill:#000;fill-opacity:1;fill-rule:evenodd;stroke:none" id="rect3757-26-33-5-9-0-0" width="200" height="320" x="1880" y="-727.638" rx="20" ry="20"/><path style="fill:#fff;fill-opacity:1;fill-rule:evenodd;stroke:none" id="path3773-0-4-8-4-60-3-86-5-7-5" d="m 2040,-667.63782 c -88.3656,0 -160,71.63444 -160,160 0,22.0914 17.9086,40 40,40 88.3656,0 160,-71.63444 160,-160 0,-22.0914 -17.9086,-40 -40,-40 z"/><path style="fill:#fa0;fill-opacity:1;fill-rule:evenodd;stroke:none" id="path3773-0-4-8-8-7-9-0-9-1" d="m 1891.75,-567.63782 c -7.5127,18.54188 -11.75,38.76336 -11.75,60 0,22.0914 17.9086,40 40,40 l 60,-100 -88.25,0 z"/><path style="fill:#0a0;fill-opacity:1;fill-rule:evenodd;stroke:none" id="path3773-0-4-8-8-5-6-5-0-08-2" d="m 1980,-567.63782 -60,100 c 67.1289,0 124.5024,-41.38924 148.25,-100 l -88.25,0 z"/><path style="fill:#f55;fill-opacity:1;fill-rule:evenodd;stroke:none" id="path3773-0-4-8-8-1-4-3-1-0" d="m 2040,-667.63782 c -67.1289,0 -124.5024,41.38924 -148.25,100 l 88.25,0 60,-100 z"/><path style="fill:#55f;fill-opacity:1;fill-rule:evenodd;stroke:none" id="path3773-0-4-8-8-5-8-3-9-4-9" d="m 2040,-667.63782 -60,100 88.25,0 c 7.5127,-18.54188 11.75,-38.76336 11.75,-60 0,-22.0914 -17.9086,-40 -40,-40 z"/><path style="fill:#fa0;fill-opacity:1;fill-rule:evenodd;stroke:none" id="path3773-0-4-8-8-7-9-5-7-0-8" d="m 1892.9375,-692.63797 c -1.8782,4.63547 -2.9375,9.69084 -2.9375,15 0,5.52285 4.4772,10 10,10 l 15,-25 -22.0625,0 z"/><path style="fill:#0a0;fill-opacity:1;fill-rule:evenodd;stroke:none" id="path3773-0-4-8-8-5-6-5-08-9-79-9" d="m 1915,-692.63797 -15,25 c 16.7822,0 31.1256,-10.34731 37.0625,-25 l -22.0625,0 z"/><path style="fill:#f55;fill-opacity:1;fill-rule:evenodd;stroke:none" id="path3773-0-4-8-8-1-4-39-9-5-1" d="m 1930,-717.63797 c -16.7822,0 -31.1256,10.34731 -37.0625,25 l 22.0625,0 15,-25 z"/><path style="fill:#55f;fill-opacity:1;fill-rule:evenodd;stroke:none" id="path3773-0-4-8-8-5-8-3-3-7-38-7" d="m 1930,-717.63797 -15,25 22.0625,0 c 1.8782,-4.63547 2.9375,-9.69084 2.9375,-15 0,-5.52285 -4.4772,-10 -10,-10 z"/><path style="fill:#fa0;fill-opacity:1;fill-rule:evenodd;stroke:none" id="path3773-0-4-8-8-7-9-5-3-2-3" d="m 2022.9375,-442.63797 c -1.8782,4.63547 -2.9375,9.69084 -2.9375,15 0,5.52285 4.4772,10 10,10 l 15,-25 -22.0625,0 z"/><path style="fill:#0a0;fill-opacity:1;fill-rule:evenodd;stroke:none" id="path3773-0-4-8-8-5-6-5-08-5-3-3" d="m 2045,-442.63797 -15,25 c 16.7822,0 31.1256,-10.34731 37.0625,-25 l -22.0625,0 z"/><path style="fill:#f55;fill-opacity:1;fill-rule:evenodd;stroke:none" id="path3773-0-4-8-8-1-4-39-7-2-0" d="m 2060,-467.63797 c -16.7822,0 -31.1256,10.34731 -37.0625,25 l 22.0625,0 15,-25 z"/><path style="fill:#55f;fill-opacity:1;fill-rule:evenodd;stroke:none" id="path3773-0-4-8-8-5-8-3-3-6-1-7" d="m 2060,-467.63797 -15,25 22.0625,0 c 1.8782,-4.63547 2.9375,-9.69084 2.9375,-15 0,-5.52285 -4.4772,-10 -10,-10 z"/><path style="fill:none;stroke:#fff;stroke-width:4;stroke-miterlimit:4;stroke-dasharray:none" id="path3773-0-4-8-8-7-9-0-03-8-0-6" d="m 2040,-667.63787 c -67.1289,0 -124.5024,41.38924 -148.25,100 -7.5127,18.54188 -11.75,38.76336 -11.75,60 0,22.0914 17.9086,40 40,40 67.1289,0 124.5024,-41.38924 148.25,-100 7.5127,-18.54188 11.75,-38.76336 11.75,-60 0,-22.0914 -17.9086,-40 -40,-40 z"/><path style="fill:none;stroke:#fff;stroke-width:4;stroke-miterlimit:4;stroke-dasharray:none" id="path3773-0-4-8-8-7-9-0-03-8-9-4-6" d="m 1930,-717.63787 c -16.7822,0 -31.1256,10.34731 -37.0625,25 -1.8782,4.63547 -2.9375,9.69084 -2.9375,15 0,5.52285 4.4772,10 10,10 16.7822,0 31.1256,-10.34731 37.0625,-25 1.8782,-4.63547 2.9375,-9.69084 2.9375,-15 0,-5.52285 -4.4772,-10 -10,-10 z"/><path style="fill:none;stroke:#fff;stroke-width:4;stroke-miterlimit:4;stroke-dasharray:none" id="path3773-0-4-8-8-7-9-0-03-8-9-5-07-0" d="m 2060,-467.63787 c -16.7822,0 -31.1256,10.34731 -37.0625,25 -1.8782,4.63547 -2.9375,9.69084 -2.9375,15 0,5.52285 4.4772,10 10,10 16.7822,0 31.1256,-10.34731 37.0625,-25 1.8782,-4.63547 2.9375,-9.69084 2.9375,-15 0,-5.52285 -4.4772,-10 -10,-10 z"/></g></g></svg>