<svg xmlns="http://www.w3.org/2000/svg" xmlns:svg="http://www.w3.org/2000/svg" id="svg6717" width="258.133" height="386.133" version="1.1" viewBox="0 0 242 362"><metadata id="metadata6722"/><g id="layer1" transform="translate(-236.14284,-337.07646)"><g id="g6694" transform="matrix(4.0000002,0,0,4.0000002,-2882.8573,-2431.3724)"><rect style="fill:#fff;fill-opacity:1;fill-rule:evenodd;stroke:#000;stroke-width:.5;stroke-miterlimit:4;stroke-dasharray:none" id="rect2987-8-5-81-2-1" width="60" height="90" x="780" y="692.362" rx="10" ry="10"/><rect style="fill:#000;fill-opacity:1;fill-rule:evenodd;stroke:none" id="rect3757-26-33-5-9-9" width="50" height="80" x="785" y="697.362" rx="5" ry="5"/><path style="fill:#fff;fill-opacity:1;fill-rule:evenodd;stroke:none" id="path3773-0-4-8-4-60-3-86-5-6" d="m 825,712.36218 c -22.09139,0 -40,17.90861 -40,40 0,5.52285 4.47715,10 10,10 22.09139,0 40,-17.90861 40,-40 0,-5.52285 -4.47715,-10 -10,-10 z"/><path style="fill:#fff;fill-opacity:1;stroke:none" id="rect3980-7-6-2-9-5-60-5-3-1-5" d="m 799.9,699.86217 -4.9,10 0,2.50001 6,0 0,2.50001 2.5,0 0,-2.50001 1.5,0 0,-2.50001 -1.5,0 0,-4.99999 -2.5,0 0,4.99999 -3.4,0 4.9,-10 z"/><path style="fill:#fff;fill-opacity:1;fill-rule:evenodd;stroke:none" id="rect5649-4" d="m 788.5,704.86216 0,2.50002 -2.5,0 0,2.49996 2.5,0 0,2.50002 2.5,0 0,-2.50002 2.5,0 0,-2.49996 -2.5,0 0,-2.50002 -2.5,0 z"/><path style="fill:#fff;fill-opacity:1;stroke:none" id="rect3980-7-6-2-9-5-60-5-3-1-8-9" d="m 820.1,774.86219 4.9,-10 0,-2.50001 -6,0 0,-2.50001 -2.5,0 0,2.50001 -1.5,0 0,2.50001 1.5,0 0,4.99999 2.5,0 0,-4.99999 3.4,0 -4.9,10 z"/><path style="fill:#fff;fill-opacity:1;fill-rule:evenodd;stroke:none" id="rect5649-1-1" d="m 831.5,769.8622 0,-2.50002 2.5,0 0,-2.49996 -2.5,0 0,-2.50002 -2.5,0 0,2.50002 -2.5,0 0,2.49996 2.5,0 0,2.50002 2.5,0 z"/><g id="g6111-38-2" transform="translate(119.99999,429.99998)"><rect style="fill:#fff;fill-opacity:1;fill-rule:evenodd;stroke:#000;stroke-width:.50990587;stroke-miterlimit:4;stroke-dasharray:none" id="rect6095-2-9" width="15" height="23.4" x="762.461" y="306.661" rx="2.5" ry="2.348" transform="matrix(1,0,-0.27472185,0.96152374,0,0)"/><rect style="fill:#f55;fill-opacity:1;fill-rule:evenodd;stroke:none" id="rect6097-5-7" width="10" height="18.2" x="764.961" y="309.261" rx="2.5" ry="2.348" transform="matrix(1,0,-0.27472185,0.96152374,0,0)"/></g><g id="g6111-62-2-1" transform="translate(129.99998,422.49998)"><rect style="fill:#fff;fill-opacity:1;fill-rule:evenodd;stroke:#000;stroke-width:.50990587;stroke-miterlimit:4;stroke-dasharray:none" id="rect6095-14-0-3" width="15" height="23.4" x="762.461" y="306.661" rx="2.5" ry="2.348" transform="matrix(1,0,-0.27472185,0.96152374,0,0)"/><rect style="fill:#55f;fill-opacity:1;fill-rule:evenodd;stroke:none" id="rect6097-6-3-2" width="10" height="18.2" x="764.961" y="309.261" rx="2.5" ry="2.348" transform="matrix(1,0,-0.27472185,0.96152374,0,0)"/></g><g id="g6111-3-5" transform="translate(127.49999,437.49998)"><rect style="fill:#fff;fill-opacity:1;fill-rule:evenodd;stroke:#000;stroke-width:.50990587;stroke-miterlimit:4;stroke-dasharray:none" id="rect6095-0-3" width="15" height="23.4" x="762.461" y="306.661" rx="2.5" ry="2.348" transform="matrix(1,0,-0.27472185,0.96152374,0,0)"/><rect style="fill:#fa0;fill-opacity:1;fill-rule:evenodd;stroke:none" id="rect6097-7-4" width="10" height="18.2" x="764.961" y="309.261" rx="2.5" ry="2.348" transform="matrix(1,0,-0.27472185,0.96152374,0,0)"/></g><g id="g6111-62-7-3" transform="translate(137.49998,429.99999)"><rect style="fill:#fff;fill-opacity:1;fill-rule:evenodd;stroke:#000;stroke-width:.50990587;stroke-miterlimit:4;stroke-dasharray:none" id="rect6095-14-8-2" width="15" height="23.4" x="762.461" y="306.661" rx="2.5" ry="2.348" transform="matrix(1,0,-0.27472185,0.96152374,0,0)"/><rect style="fill:#5a5;fill-opacity:1;fill-rule:evenodd;stroke:none" id="rect6097-6-7-1" width="10" height="18.2" x="764.961" y="309.261" rx="2.5" ry="2.348" transform="matrix(1,0,-0.27472185,0.96152374,0,0)"/></g></g></g></svg>