<svg xmlns="http://www.w3.org/2000/svg" xmlns:svg="http://www.w3.org/2000/svg" id="svg6717" width="258.133" height="386.133" version="1.1" viewBox="0 0 242 362"><metadata id="metadata6722"/><g id="layer1" transform="translate(-236.14284,-337.07646)"><g id="g6595" transform="matrix(4.0000002,0,0,4.0000002,-962.85723,-991.37236)"><rect style="fill:#fff;fill-opacity:1;fill-rule:evenodd;stroke:#000;stroke-width:.5;stroke-miterlimit:4;stroke-dasharray:none" id="rect2987-8-5-6" width="60" height="90" x="300" y="332.362" rx="10" ry="10"/><rect style="fill:#f55;fill-opacity:1;fill-rule:evenodd;stroke:none" id="rect3757-26-33-81" width="50" height="80" x="305" y="337.362" rx="5" ry="5"/><path style="fill:#fff;fill-opacity:1;fill-rule:evenodd;stroke:none" id="path3773-0-4-8-4-60-3-9" d="m 345,352.36217 c -22.09139,0 -40,17.90861 -40,40 0,5.52285 4.47715,10 10,10 22.09139,0 40,-17.90861 40,-40 0,-5.52285 -4.47715,-10 -10,-10 z"/><path style="fill:#f55;fill-opacity:1;stroke:none" id="rect3163-6-0-0-2-7-1-2-19-4" d="m 321,362.36217 0,10 0,5 10,0 c 2.77,0 5,2.23 5,5 0,2.77 -2.23,5 -5,5 -2.77,0 -5,-2.23 -5,-5 l -5,0 c 0,5.54 4.46,10 10,10 5.54,0 10,-4.46 10,-10 0,-5.54 -4.46,-10 -10,-10 l -5,0 0,-5 5,0 9,0 0,-5 -9,0 -5,0 z"/><path style="fill:#fff;fill-opacity:1;stroke:none" id="rect3163-6-0-0-2-7-1-2-19-2-4" d="m 307.5,339.86217 0,5 0,2.5 5,0 c 1.385,0 2.5,1.115 2.5,2.5 0,1.385 -1.115,2.5 -2.5,2.5 -1.385,0 -2.5,-1.115 -2.5,-2.5 l -2.5,0 c 0,2.77 2.23,5 5,5 2.77,0 5,-2.23 5,-5 0,-2.77 -2.23,-5 -5,-5 l -2.5,0 0,-2.5 2.5,0 4.5,0 0,-2.5 -4.5,0 -2.5,0 z"/><path style="fill:#fff;fill-opacity:1;stroke:none" id="rect3163-6-0-0-2-7-1-2-19-2-4-6" d="m 352.5,414.86217 0,-5 0,-2.5 -5,0 c -1.385,0 -2.5,-1.115 -2.5,-2.5 0,-1.385 1.115,-2.5 2.5,-2.5 1.385,0 2.5,1.115 2.5,2.5 l 2.5,0 c 0,-2.77 -2.23,-5 -5,-5 -2.77,0 -5,2.23 -5,5 0,2.77 2.23,5 5,5 l 2.5,0 0,2.5 -2.5,0 -4.5,0 0,2.5 4.5,0 2.5,0 z"/></g></g></svg>