<svg xmlns="http://www.w3.org/2000/svg" xmlns:svg="http://www.w3.org/2000/svg" id="svg6717" width="258.133" height="386.133" version="1.1" viewBox="0 0 242 362"><metadata id="metadata6722"/><g id="layer1" transform="translate(-236.14284,-337.07646)"><g id="g6603" transform="matrix(4.0000002,0,0,4.0000002,-1202.8572,-991.37236)"><rect style="fill:#fff;fill-opacity:1;fill-rule:evenodd;stroke:#000;stroke-width:.5;stroke-miterlimit:4;stroke-dasharray:none" id="rect2987-8-5-7" width="60" height="90" x="360" y="332.362" rx="10" ry="10"/><rect style="fill:#f55;fill-opacity:1;fill-rule:evenodd;stroke:none" id="rect3757-26-33-2" width="50" height="80" x="365" y="337.362" rx="5" ry="5"/><path style="fill:#fff;fill-opacity:1;fill-rule:evenodd;stroke:none" id="path3773-0-4-8-4-60-3-2" d="m 405,352.36217 c -22.09139,0 -40,17.90861 -40,40 0,5.52285 4.47715,10 10,10 22.09139,0 40,-17.90861 40,-40 0,-5.52285 -4.47715,-10 -10,-10 z"/><path style="fill:#f55;fill-opacity:1;fill-rule:evenodd;stroke:none" id="path3962-5-6-2" d="m 390,362.36217 c -5.52285,0 -10,4.47715 -10,10 l 0,10 c 0,5.52285 4.47715,10 10,10 5.52285,0 10,-4.47715 10,-10 0,-5.52285 -4.47715,-10 -10,-10 -1.817,0 -3.53157,0.49674 -5,1.34375 l 0,-1.34375 c 0,-2.76142 2.23858,-5 5,-5 1.95426,0 3.6151,1.14704 4.4375,2.78125 l 4.5,-2.25 c -1.63927,-3.28436 -5.01726,-5.53125 -8.9375,-5.53125 z m 0,15 c 2.76142,0 5,2.23858 5,5 0,2.76142 -2.23858,5 -5,5 -2.76142,0 -5,-2.23858 -5,-5 0,-2.76142 2.23858,-5 5,-5 z m -5,16 0,2 10,0 0,-2 -10,0 z"/><path style="fill:#fff;fill-opacity:1;fill-rule:evenodd;stroke:none" id="path3962-5-6-2-1" d="m 372.5,339.86217 c -2.76143,0 -5,2.23859 -5,5.00001 l 0,4.99998 c 0,2.76143 2.23857,5.00001 5,5.00001 2.76142,0 5,-2.23858 5,-5.00001 0,-2.76141 -2.23858,-4.99998 -5,-4.99998 -0.9085,0 -1.76579,0.24837 -2.5,0.67187 l 0,-0.67187 c 0,-1.38071 1.11929,-2.5 2.5,-2.5 0.97712,0 1.80755,0.57351 2.21874,1.39062 l 2.25,-1.125 c -0.81962,-1.64218 -2.50862,-2.76563 -4.46874,-2.76563 z m 0,7.5 c 1.3807,0 2.49999,1.11928 2.49999,2.49999 0,1.38071 -1.11929,2.50001 -2.49999,2.50001 -1.38071,0 -2.5,-1.1193 -2.5,-2.50001 0,-1.38071 1.11929,-2.49999 2.5,-2.49999 z"/><path style="fill:#fff;fill-opacity:1;fill-rule:evenodd;stroke:none" id="path3962-5-6-2-1-8" d="m 407.5,414.86217 c 2.76143,0 5,-2.23859 5,-5.00001 l 0,-4.99998 c 0,-2.76143 -2.23857,-5.00001 -5,-5.00001 -2.76142,0 -5,2.23858 -5,5.00001 0,2.76141 2.23858,4.99998 5,4.99998 0.9085,0 1.76579,-0.24837 2.5,-0.67187 l 0,0.67187 c 0,1.38071 -1.11929,2.5 -2.5,2.5 -0.97712,0 -1.80755,-0.57351 -2.21874,-1.39062 l -2.25,1.125 c 0.81962,1.64218 2.50862,2.76563 4.46874,2.76563 z m 0,-7.5 c -1.3807,0 -2.49999,-1.11928 -2.49999,-2.49999 0,-1.38071 1.11929,-2.50001 2.49999,-2.50001 1.38071,0 2.5,1.1193 2.5,2.50001 0,1.38071 -1.11929,2.49999 -2.5,2.49999 z"/></g></g></svg>