<svg xmlns="http://www.w3.org/2000/svg" xmlns:svg="http://www.w3.org/2000/svg" id="svg6717" width="258.133" height="386.133" version="1.1" viewBox="0 0 242 362"><metadata id="metadata6722"/><g id="layer1" transform="translate(-236.14284,-337.07646)"><g id="g6611" transform="matrix(4.0000002,0,0,4.0000002,-1442.8573,-991.37236)"><rect style="fill:#fff;fill-opacity:1;fill-rule:evenodd;stroke:#000;stroke-width:.5;stroke-miterlimit:4;stroke-dasharray:none" id="rect2987-4" width="60" height="90" x="420" y="332.362" rx="10" ry="10"/><rect style="fill:#f55;fill-opacity:1;fill-rule:evenodd;stroke:none" id="rect3757-2" width="50" height="80" x="425" y="337.362" rx="5" ry="5"/><path style="fill:#fff;fill-opacity:1;fill-rule:evenodd;stroke:none" id="path3773-0-4-8-4-3" d="m 465,352.36215 c -22.09139,0 -40,17.90861 -40,40 0,5.52285 4.47715,10 10,10 22.09139,0 40,-17.90861 40,-40 0,-5.52285 -4.47715,-10 -10,-10 z"/><path style="fill:#f55;fill-opacity:1;fill-rule:evenodd;stroke:none" id="rect4014" d="m 441.5,362.36217 0,10 5,0 0,-5 10,0 -10,25 5,0 10,-25 0,-5 -15,0 -5,0 z"/><path style="fill:#fff;fill-opacity:1;fill-rule:evenodd;stroke:none" id="rect4014-3" d="m 427.5,339.86217 0,5 2.5,0 0,-2.5 5,0 -5,12.5 2.5,0 5,-12.5 0,-2.5 -7.5,0 -2.5,0 z"/><path style="fill:#fff;fill-opacity:1;fill-rule:evenodd;stroke:none" id="rect4014-3-3" d="m 472.5,414.86217 0,-5 -2.5,0 0,2.5 -5,0 5,-12.5 -2.5,0 -5,12.5 0,2.5 7.5,0 2.5,0 z"/></g></g></svg>